<mxfile host="app.diagrams.net" agent="Mozilla/5.0 (Windows NT 10.0; Win64; x64; rv:139.0) Gecko/20100101 Firefox/139.0" version="27.1.6" pages="2">
  <diagram name="Page-1" id="d1mHIUvlHyX6PVE4RYbe">
    <mxGraphModel dx="1123" dy="673" grid="1" gridSize="10" guides="1" tooltips="1" connect="1" arrows="1" fold="1" page="1" pageScale="1" pageWidth="3300" pageHeight="4681" math="0" shadow="0">
      <root>
        <mxCell id="0" />
        <mxCell id="1" parent="0" />
        <mxCell id="MxFaJycqcW5vLe-v7upk-3" style="edgeStyle=orthogonalEdgeStyle;rounded=0;orthogonalLoop=1;jettySize=auto;html=1;exitX=0.5;exitY=1;exitDx=0;exitDy=0;entryX=0.5;entryY=0;entryDx=0;entryDy=0;" edge="1" parent="1" source="MxFaJycqcW5vLe-v7upk-1" target="MxFaJycqcW5vLe-v7upk-2">
          <mxGeometry relative="1" as="geometry" />
        </mxCell>
        <mxCell id="MxFaJycqcW5vLe-v7upk-1" value="model:static&#xa;Word2Vec" style="shape=hexagon;perimeter=hexagonPerimeter2;fillColor=#b0e3e6;strokeColor=#0e8088;" name="model" vertex="1" parent="1">
          <mxGeometry x="820" y="240" width="120" height="50" as="geometry" />
        </mxCell>
        <mxCell id="MxFaJycqcW5vLe-v7upk-7" style="edgeStyle=orthogonalEdgeStyle;rounded=0;orthogonalLoop=1;jettySize=auto;html=1;exitX=1;exitY=0.5;exitDx=0;exitDy=0;entryX=0.5;entryY=0;entryDx=0;entryDy=0;" edge="1" parent="1" source="MxFaJycqcW5vLe-v7upk-2" target="MxFaJycqcW5vLe-v7upk-6">
          <mxGeometry relative="1" as="geometry" />
        </mxCell>
        <mxCell id="MxFaJycqcW5vLe-v7upk-2" value="infer:deduce" style="rounded=1;whiteSpace=wrap;html=1;arcSize=50;fillColor=#bac8d3;strokeColor=#23445d;" name="infer:deduce" vertex="1" parent="1">
          <mxGeometry x="830" y="370" width="100" height="50" as="geometry" />
        </mxCell>
        <mxCell id="MxFaJycqcW5vLe-v7upk-5" style="edgeStyle=orthogonalEdgeStyle;rounded=0;orthogonalLoop=1;jettySize=auto;html=1;exitX=0.5;exitY=0;exitDx=0;exitDy=0;entryX=0;entryY=0.5;entryDx=0;entryDy=0;" edge="1" parent="1" source="MxFaJycqcW5vLe-v7upk-4" target="MxFaJycqcW5vLe-v7upk-2">
          <mxGeometry relative="1" as="geometry" />
        </mxCell>
        <mxCell id="MxFaJycqcW5vLe-v7upk-9" style="edgeStyle=orthogonalEdgeStyle;rounded=0;orthogonalLoop=1;jettySize=auto;html=1;exitX=0.5;exitY=1;exitDx=0;exitDy=0;entryX=0;entryY=0.5;entryDx=0;entryDy=0;" edge="1" parent="1" source="MxFaJycqcW5vLe-v7upk-4" target="MxFaJycqcW5vLe-v7upk-8">
          <mxGeometry relative="1" as="geometry" />
        </mxCell>
        <mxCell id="MxFaJycqcW5vLe-v7upk-4" value="data&#xa;Annotated&#xa;Dataset" style="rectangle;fillColor=#fff2cc;strokeColor=#d6b656;" name="data" vertex="1" parent="1">
          <mxGeometry x="700" y="470" width="100" height="50" as="geometry" />
        </mxCell>
        <mxCell id="MxFaJycqcW5vLe-v7upk-10" style="edgeStyle=orthogonalEdgeStyle;rounded=0;orthogonalLoop=1;jettySize=auto;html=1;exitX=0.5;exitY=1;exitDx=0;exitDy=0;entryX=1;entryY=0.5;entryDx=0;entryDy=0;" edge="1" parent="1" source="MxFaJycqcW5vLe-v7upk-6" target="MxFaJycqcW5vLe-v7upk-8">
          <mxGeometry relative="1" as="geometry" />
        </mxCell>
        <mxCell id="MxFaJycqcW5vLe-v7upk-6" value="symbol&#xa;Vectorized&#xa;Representation" style="rectangle;fillColor=#dae8fc;strokeColor=#6c8ebf;" name="symbol" vertex="1" parent="1">
          <mxGeometry x="960" y="470" width="100" height="50" as="geometry" />
        </mxCell>
        <mxCell id="MxFaJycqcW5vLe-v7upk-12" style="edgeStyle=orthogonalEdgeStyle;rounded=0;orthogonalLoop=1;jettySize=auto;html=1;exitX=0.5;exitY=1;exitDx=0;exitDy=0;entryX=0.5;entryY=0;entryDx=0;entryDy=0;" edge="1" parent="1" source="MxFaJycqcW5vLe-v7upk-8" target="MxFaJycqcW5vLe-v7upk-11">
          <mxGeometry relative="1" as="geometry" />
        </mxCell>
        <mxCell id="MxFaJycqcW5vLe-v7upk-8" value="generate:train" style="rounded=1;whiteSpace=wrap;html=1;arcSize=50;fillColor=#e1d5e7;strokeColor=#9673a6;" name="generate:train" vertex="1" parent="1">
          <mxGeometry x="830" y="570" width="100" height="50" as="geometry" />
        </mxCell>
        <mxCell id="MxFaJycqcW5vLe-v7upk-14" style="edgeStyle=orthogonalEdgeStyle;rounded=0;orthogonalLoop=1;jettySize=auto;html=1;exitX=0.5;exitY=1;exitDx=0;exitDy=0;entryX=1;entryY=0.5;entryDx=0;entryDy=0;" edge="1" parent="1" source="MxFaJycqcW5vLe-v7upk-11" target="MxFaJycqcW5vLe-v7upk-13">
          <mxGeometry relative="1" as="geometry" />
        </mxCell>
        <mxCell id="MxFaJycqcW5vLe-v7upk-11" value="model:semantic&#xa;NLP Model" style="shape=hexagon;perimeter=hexagonPerimeter2;fillColor=#b0e3e6;strokeColor=#0e8088;" name="model" vertex="1" parent="1" tooltip="⚠️ Node not part of any valid pattern.">
          <mxGeometry x="820" y="700" width="120" height="50" as="geometry" />
        </mxCell>
        <mxCell id="MxFaJycqcW5vLe-v7upk-16" style="edgeStyle=orthogonalEdgeStyle;rounded=0;orthogonalLoop=1;jettySize=auto;html=1;exitX=0;exitY=0.5;exitDx=0;exitDy=0;entryX=1;entryY=0.5;entryDx=0;entryDy=0;" edge="1" parent="1" source="MxFaJycqcW5vLe-v7upk-13" target="MxFaJycqcW5vLe-v7upk-15">
          <mxGeometry relative="1" as="geometry" />
        </mxCell>
        <mxCell id="MxFaJycqcW5vLe-v7upk-13" value="infer:deduce" style="rounded=1;whiteSpace=wrap;html=1;arcSize=50;fillColor=#bac8d3;strokeColor=#23445d;" name="infer:deduce" vertex="1" parent="1" tooltip="⚠️ Node not part of any valid pattern.">
          <mxGeometry x="700" y="800" width="100" height="50" as="geometry" />
        </mxCell>
        <mxCell id="MxFaJycqcW5vLe-v7upk-18" style="edgeStyle=orthogonalEdgeStyle;rounded=0;orthogonalLoop=1;jettySize=auto;html=1;exitX=0;exitY=0.5;exitDx=0;exitDy=0;entryX=0.5;entryY=0;entryDx=0;entryDy=0;" edge="1" parent="1" source="MxFaJycqcW5vLe-v7upk-15" target="MxFaJycqcW5vLe-v7upk-17">
          <mxGeometry relative="1" as="geometry" />
        </mxCell>
        <mxCell id="MxFaJycqcW5vLe-v7upk-15" value="symbol&#xa;Semantically&#xa;Classified Data" style="rectangle;fillColor=#dae8fc;strokeColor=#6c8ebf;" name="symbol" vertex="1" parent="1" tooltip="⚠️ Node not part of any valid pattern.">
          <mxGeometry x="520" y="800" width="100" height="50" as="geometry" />
        </mxCell>
        <mxCell id="MxFaJycqcW5vLe-v7upk-20" style="edgeStyle=orthogonalEdgeStyle;rounded=0;orthogonalLoop=1;jettySize=auto;html=1;exitX=0.5;exitY=1;exitDx=0;exitDy=0;entryX=0;entryY=0.5;entryDx=0;entryDy=0;" edge="1" parent="1" source="MxFaJycqcW5vLe-v7upk-17" target="MxFaJycqcW5vLe-v7upk-19">
          <mxGeometry relative="1" as="geometry" />
        </mxCell>
        <mxCell id="MxFaJycqcW5vLe-v7upk-17" value="infer:deduce" style="rounded=1;whiteSpace=wrap;html=1;arcSize=50;fillColor=#bac8d3;strokeColor=#23445d;" name="infer:deduce" vertex="1" parent="1" tooltip="⚠️ Node not part of any valid pattern.">
          <mxGeometry x="390" y="900" width="100" height="50" as="geometry" />
        </mxCell>
        <mxCell id="MxFaJycqcW5vLe-v7upk-19" value="symbol&#xa;Fuzzy Rules" style="rectangle;fillColor=#dae8fc;strokeColor=#6c8ebf;" name="symbol" vertex="1" parent="1" tooltip="⚠️ Node not part of any valid pattern.">
          <mxGeometry x="520" y="1000" width="100" height="50" as="geometry" />
        </mxCell>
        <mxCell id="MxFaJycqcW5vLe-v7upk-25" style="edgeStyle=orthogonalEdgeStyle;rounded=0;orthogonalLoop=1;jettySize=auto;html=1;exitX=1;exitY=0.5;exitDx=0;exitDy=0;entryX=0;entryY=0.5;entryDx=0;entryDy=0;" edge="1" parent="1" source="MxFaJycqcW5vLe-v7upk-21" target="MxFaJycqcW5vLe-v7upk-24">
          <mxGeometry relative="1" as="geometry" />
        </mxCell>
        <mxCell id="MxFaJycqcW5vLe-v7upk-21" value="generate:engineer" style="rounded=1;whiteSpace=wrap;html=1;arcSize=50;fillColor=#e1d5e7;strokeColor=#9673a6;" name="generate:engineer" vertex="1" parent="1">
          <mxGeometry x="700" y="1000" width="100" height="50" as="geometry" />
        </mxCell>
        <mxCell id="MxFaJycqcW5vLe-v7upk-23" value="&lt;div&gt;error&lt;/div&gt;&lt;div&gt;--&amp;gt;&lt;/div&gt;" style="text;html=1;align=center;verticalAlign=middle;whiteSpace=wrap;rounded=0;dashed=1;fillColor=#f5f5f5;fontColor=#333333;strokeColor=#666666;strokeWidth=2;" name="text" vertex="1" parent="1">
          <mxGeometry x="620" y="1010" width="80" height="30" as="geometry" />
        </mxCell>
        <mxCell id="MxFaJycqcW5vLe-v7upk-27" style="edgeStyle=orthogonalEdgeStyle;rounded=0;orthogonalLoop=1;jettySize=auto;html=1;exitX=1;exitY=0.5;exitDx=0;exitDy=0;entryX=0;entryY=0.5;entryDx=0;entryDy=0;" edge="1" parent="1" source="MxFaJycqcW5vLe-v7upk-24" target="MxFaJycqcW5vLe-v7upk-26">
          <mxGeometry relative="1" as="geometry" />
        </mxCell>
        <mxCell id="MxFaJycqcW5vLe-v7upk-24" value="model:hybrid&#xa;NLP-Fuzzy" style="shape=hexagon;perimeter=hexagonPerimeter2;fillColor=#b0e3e6;strokeColor=#0e8088;" name="model" vertex="1" parent="1">
          <mxGeometry x="870" y="1000" width="120" height="50" as="geometry" />
        </mxCell>
        <mxCell id="MxFaJycqcW5vLe-v7upk-31" style="edgeStyle=orthogonalEdgeStyle;rounded=0;orthogonalLoop=1;jettySize=auto;html=1;exitX=1;exitY=0.5;exitDx=0;exitDy=0;entryX=0;entryY=0.5;entryDx=0;entryDy=0;" edge="1" parent="1" source="MxFaJycqcW5vLe-v7upk-26" target="MxFaJycqcW5vLe-v7upk-30">
          <mxGeometry relative="1" as="geometry" />
        </mxCell>
        <mxCell id="MxFaJycqcW5vLe-v7upk-26" value="infer:deduce" style="rounded=1;whiteSpace=wrap;html=1;arcSize=50;fillColor=#bac8d3;strokeColor=#23445d;" name="infer:deduce" vertex="1" parent="1">
          <mxGeometry x="1060" y="1000" width="100" height="50" as="geometry" />
        </mxCell>
        <mxCell id="MxFaJycqcW5vLe-v7upk-29" style="edgeStyle=orthogonalEdgeStyle;rounded=0;orthogonalLoop=1;jettySize=auto;html=1;entryX=0.5;entryY=0;entryDx=0;entryDy=0;" edge="1" parent="1" source="MxFaJycqcW5vLe-v7upk-28" target="MxFaJycqcW5vLe-v7upk-26">
          <mxGeometry relative="1" as="geometry" />
        </mxCell>
        <mxCell id="MxFaJycqcW5vLe-v7upk-28" value="data&#xa;Input Query" style="rectangle;fillColor=#fff2cc;strokeColor=#d6b656;" name="data" vertex="1" parent="1">
          <mxGeometry x="1060" y="870" width="100" height="50" as="geometry" />
        </mxCell>
        <mxCell id="MxFaJycqcW5vLe-v7upk-30" value="symbol&#xa;Recommendation" style="rectangle;fillColor=#dae8fc;strokeColor=#6c8ebf;" name="symbol" vertex="1" parent="1">
          <mxGeometry x="1240" y="1000" width="100" height="50" as="geometry" />
        </mxCell>
        <mxCell id="MxFaJycqcW5vLe-v7upk-32" value="error" style="text;html=1;align=center;verticalAlign=middle;whiteSpace=wrap;rounded=0;dashed=1;fillColor=#f5f5f5;fontColor=#333333;strokeColor=#666666;strokeWidth=2;" name="text" vertex="1" parent="1">
          <mxGeometry x="730" y="760" width="40" height="30" as="geometry" />
        </mxCell>
        <mxCell id="MxFaJycqcW5vLe-v7upk-33" value="error" style="text;html=1;align=center;verticalAlign=middle;whiteSpace=wrap;rounded=0;dashed=1;fillColor=#f5f5f5;fontColor=#333333;strokeColor=#666666;strokeWidth=2;" name="text" vertex="1" parent="1">
          <mxGeometry x="500" y="910" width="40" height="30" as="geometry" />
        </mxCell>
      </root>
    </mxGraphModel>
  </diagram>
  <diagram name="Copy of Page-1" id="mn2gUrF0yVHRdcKlavY1">
    <mxGraphModel dx="1123" dy="673" grid="1" gridSize="10" guides="1" tooltips="1" connect="1" arrows="1" fold="1" page="1" pageScale="1" pageWidth="3300" pageHeight="4681" math="0" shadow="0">
      <root>
        <mxCell id="t-_gTp0Poy27Sv-D3Z3f-0" />
        <mxCell id="t-_gTp0Poy27Sv-D3Z3f-1" parent="t-_gTp0Poy27Sv-D3Z3f-0" />
        <mxCell id="t-_gTp0Poy27Sv-D3Z3f-2" style="edgeStyle=orthogonalEdgeStyle;rounded=0;orthogonalLoop=1;jettySize=auto;html=1;exitX=0.5;exitY=1;exitDx=0;exitDy=0;entryX=0.5;entryY=0;entryDx=0;entryDy=0;" edge="1" parent="t-_gTp0Poy27Sv-D3Z3f-1" source="t-_gTp0Poy27Sv-D3Z3f-3" target="t-_gTp0Poy27Sv-D3Z3f-5">
          <mxGeometry relative="1" as="geometry" />
        </mxCell>
        <mxCell id="t-_gTp0Poy27Sv-D3Z3f-3" value="model:static&#xa;Word2Vec" style="shape=hexagon;perimeter=hexagonPerimeter2;fillColor=#b0e3e6;strokeColor=#0e8088;" name="model" vertex="1" parent="t-_gTp0Poy27Sv-D3Z3f-1">
          <mxGeometry x="820" y="240" width="120" height="50" as="geometry" />
        </mxCell>
        <mxCell id="t-_gTp0Poy27Sv-D3Z3f-4" style="edgeStyle=orthogonalEdgeStyle;rounded=0;orthogonalLoop=1;jettySize=auto;html=1;exitX=1;exitY=0.5;exitDx=0;exitDy=0;entryX=0.5;entryY=0;entryDx=0;entryDy=0;" edge="1" parent="t-_gTp0Poy27Sv-D3Z3f-1" source="t-_gTp0Poy27Sv-D3Z3f-5" target="t-_gTp0Poy27Sv-D3Z3f-10">
          <mxGeometry relative="1" as="geometry" />
        </mxCell>
        <mxCell id="t-_gTp0Poy27Sv-D3Z3f-5" value="infer:deduce" style="rounded=1;whiteSpace=wrap;html=1;arcSize=50;fillColor=#bac8d3;strokeColor=#23445d;" name="infer:deduce" vertex="1" parent="t-_gTp0Poy27Sv-D3Z3f-1">
          <mxGeometry x="830" y="370" width="100" height="50" as="geometry" />
        </mxCell>
        <mxCell id="t-_gTp0Poy27Sv-D3Z3f-6" style="edgeStyle=orthogonalEdgeStyle;rounded=0;orthogonalLoop=1;jettySize=auto;html=1;exitX=0.5;exitY=0;exitDx=0;exitDy=0;entryX=0;entryY=0.5;entryDx=0;entryDy=0;" edge="1" parent="t-_gTp0Poy27Sv-D3Z3f-1" source="t-_gTp0Poy27Sv-D3Z3f-8" target="t-_gTp0Poy27Sv-D3Z3f-5">
          <mxGeometry relative="1" as="geometry" />
        </mxCell>
        <mxCell id="t-_gTp0Poy27Sv-D3Z3f-7" style="edgeStyle=orthogonalEdgeStyle;rounded=0;orthogonalLoop=1;jettySize=auto;html=1;exitX=0.5;exitY=1;exitDx=0;exitDy=0;entryX=0;entryY=0.5;entryDx=0;entryDy=0;" edge="1" parent="t-_gTp0Poy27Sv-D3Z3f-1" source="t-_gTp0Poy27Sv-D3Z3f-8" target="t-_gTp0Poy27Sv-D3Z3f-12">
          <mxGeometry relative="1" as="geometry" />
        </mxCell>
        <mxCell id="t-_gTp0Poy27Sv-D3Z3f-8" value="data&#xa;Annotated&#xa;Dataset" style="rectangle;fillColor=#fff2cc;strokeColor=#d6b656;" name="data" vertex="1" parent="t-_gTp0Poy27Sv-D3Z3f-1">
          <mxGeometry x="700" y="470" width="100" height="50" as="geometry" />
        </mxCell>
        <mxCell id="t-_gTp0Poy27Sv-D3Z3f-9" style="edgeStyle=orthogonalEdgeStyle;rounded=0;orthogonalLoop=1;jettySize=auto;html=1;exitX=0.5;exitY=1;exitDx=0;exitDy=0;entryX=1;entryY=0.5;entryDx=0;entryDy=0;" edge="1" parent="t-_gTp0Poy27Sv-D3Z3f-1" source="t-_gTp0Poy27Sv-D3Z3f-10" target="t-_gTp0Poy27Sv-D3Z3f-12">
          <mxGeometry relative="1" as="geometry" />
        </mxCell>
        <mxCell id="t-_gTp0Poy27Sv-D3Z3f-10" value="symbol&#xa;Vectorized&#xa;Representation" style="rectangle;fillColor=#dae8fc;strokeColor=#6c8ebf;" name="symbol" vertex="1" parent="t-_gTp0Poy27Sv-D3Z3f-1">
          <mxGeometry x="960" y="470" width="100" height="50" as="geometry" />
        </mxCell>
        <mxCell id="t-_gTp0Poy27Sv-D3Z3f-11" style="edgeStyle=orthogonalEdgeStyle;rounded=0;orthogonalLoop=1;jettySize=auto;html=1;exitX=0.5;exitY=1;exitDx=0;exitDy=0;entryX=0.5;entryY=0;entryDx=0;entryDy=0;" edge="1" parent="t-_gTp0Poy27Sv-D3Z3f-1" source="t-_gTp0Poy27Sv-D3Z3f-12" target="t-_gTp0Poy27Sv-D3Z3f-14">
          <mxGeometry relative="1" as="geometry" />
        </mxCell>
        <mxCell id="t-_gTp0Poy27Sv-D3Z3f-12" value="generate:train" style="rounded=1;whiteSpace=wrap;html=1;arcSize=50;fillColor=#e1d5e7;strokeColor=#9673a6;" name="generate:train" vertex="1" parent="t-_gTp0Poy27Sv-D3Z3f-1">
          <mxGeometry x="830" y="570" width="100" height="50" as="geometry" />
        </mxCell>
        <mxCell id="t-_gTp0Poy27Sv-D3Z3f-13" style="edgeStyle=orthogonalEdgeStyle;rounded=0;orthogonalLoop=1;jettySize=auto;html=1;exitX=0.5;exitY=1;exitDx=0;exitDy=0;entryX=1;entryY=0.5;entryDx=0;entryDy=0;" edge="1" parent="t-_gTp0Poy27Sv-D3Z3f-1" source="t-_gTp0Poy27Sv-D3Z3f-14" target="t-_gTp0Poy27Sv-D3Z3f-16">
          <mxGeometry relative="1" as="geometry" />
        </mxCell>
        <mxCell id="t-_gTp0Poy27Sv-D3Z3f-14" value="model:semantic&#xa;NLP Model" style="shape=hexagon;perimeter=hexagonPerimeter2;fillColor=#b0e3e6;strokeColor=#0e8088;" name="model" vertex="1" parent="t-_gTp0Poy27Sv-D3Z3f-1" tooltip="⚠️ Node not part of any valid pattern.">
          <mxGeometry x="820" y="700" width="120" height="50" as="geometry" />
        </mxCell>
        <mxCell id="t-_gTp0Poy27Sv-D3Z3f-15" style="edgeStyle=orthogonalEdgeStyle;rounded=0;orthogonalLoop=1;jettySize=auto;html=1;exitX=0;exitY=0.5;exitDx=0;exitDy=0;entryX=1;entryY=0.5;entryDx=0;entryDy=0;" edge="1" parent="t-_gTp0Poy27Sv-D3Z3f-1" source="t-_gTp0Poy27Sv-D3Z3f-16" target="t-_gTp0Poy27Sv-D3Z3f-18">
          <mxGeometry relative="1" as="geometry" />
        </mxCell>
        <mxCell id="t-_gTp0Poy27Sv-D3Z3f-16" value="infer:deduce" style="rounded=1;whiteSpace=wrap;html=1;arcSize=50;fillColor=#bac8d3;strokeColor=#23445d;" name="infer:deduce" vertex="1" parent="t-_gTp0Poy27Sv-D3Z3f-1" tooltip="⚠️ Node not part of any valid pattern.">
          <mxGeometry x="700" y="800" width="100" height="50" as="geometry" />
        </mxCell>
        <mxCell id="t-_gTp0Poy27Sv-D3Z3f-17" style="edgeStyle=orthogonalEdgeStyle;rounded=0;orthogonalLoop=1;jettySize=auto;html=1;exitX=0;exitY=0.5;exitDx=0;exitDy=0;entryX=0.5;entryY=0;entryDx=0;entryDy=0;" edge="1" parent="t-_gTp0Poy27Sv-D3Z3f-1" source="t-_gTp0Poy27Sv-D3Z3f-18" target="t-_gTp0Poy27Sv-D3Z3f-20">
          <mxGeometry relative="1" as="geometry" />
        </mxCell>
        <mxCell id="t-_gTp0Poy27Sv-D3Z3f-18" value="symbol&#xa;Semantically&#xa;Classified Data" style="rectangle;fillColor=#dae8fc;strokeColor=#6c8ebf;" name="symbol" vertex="1" parent="t-_gTp0Poy27Sv-D3Z3f-1">
          <mxGeometry x="520" y="800" width="100" height="50" as="geometry" />
        </mxCell>
        <mxCell id="t-_gTp0Poy27Sv-D3Z3f-19" style="edgeStyle=orthogonalEdgeStyle;rounded=0;orthogonalLoop=1;jettySize=auto;html=1;exitX=0.5;exitY=1;exitDx=0;exitDy=0;entryX=0;entryY=0.5;entryDx=0;entryDy=0;" edge="1" parent="t-_gTp0Poy27Sv-D3Z3f-1" source="t-_gTp0Poy27Sv-D3Z3f-20" target="t-_gTp0Poy27Sv-D3Z3f-21">
          <mxGeometry relative="1" as="geometry" />
        </mxCell>
        <mxCell id="t-_gTp0Poy27Sv-D3Z3f-20" value="infer:deduce" style="rounded=1;whiteSpace=wrap;html=1;arcSize=50;fillColor=#bac8d3;strokeColor=#23445d;" name="infer:deduce" vertex="1" parent="t-_gTp0Poy27Sv-D3Z3f-1">
          <mxGeometry x="390" y="900" width="100" height="50" as="geometry" />
        </mxCell>
        <mxCell id="hXK9TnrhFIUoQlNanC98-0" style="edgeStyle=orthogonalEdgeStyle;rounded=0;orthogonalLoop=1;jettySize=auto;html=1;exitX=1;exitY=0.5;exitDx=0;exitDy=0;entryX=0;entryY=0.5;entryDx=0;entryDy=0;" edge="1" parent="t-_gTp0Poy27Sv-D3Z3f-1" source="t-_gTp0Poy27Sv-D3Z3f-21" target="t-_gTp0Poy27Sv-D3Z3f-23">
          <mxGeometry relative="1" as="geometry" />
        </mxCell>
        <mxCell id="t-_gTp0Poy27Sv-D3Z3f-21" value="symbol&#xa;Fuzzy Rules" style="rectangle;fillColor=#dae8fc;strokeColor=#6c8ebf;" name="symbol" vertex="1" parent="t-_gTp0Poy27Sv-D3Z3f-1" tooltip="⚠️ Node not part of any valid pattern.">
          <mxGeometry x="520" y="1000" width="100" height="50" as="geometry" />
        </mxCell>
        <mxCell id="t-_gTp0Poy27Sv-D3Z3f-22" style="edgeStyle=orthogonalEdgeStyle;rounded=0;orthogonalLoop=1;jettySize=auto;html=1;exitX=1;exitY=0.5;exitDx=0;exitDy=0;entryX=0;entryY=0.5;entryDx=0;entryDy=0;" edge="1" parent="t-_gTp0Poy27Sv-D3Z3f-1" source="t-_gTp0Poy27Sv-D3Z3f-23" target="t-_gTp0Poy27Sv-D3Z3f-26">
          <mxGeometry relative="1" as="geometry" />
        </mxCell>
        <mxCell id="t-_gTp0Poy27Sv-D3Z3f-23" value="generate:engineer" style="rounded=1;whiteSpace=wrap;html=1;arcSize=50;fillColor=#e1d5e7;strokeColor=#9673a6;" name="generate:engineer" vertex="1" parent="t-_gTp0Poy27Sv-D3Z3f-1" tooltip="⚠️ Node not part of any valid pattern.">
          <mxGeometry x="700" y="1000" width="100" height="50" as="geometry" />
        </mxCell>
        <mxCell id="t-_gTp0Poy27Sv-D3Z3f-25" style="edgeStyle=orthogonalEdgeStyle;rounded=0;orthogonalLoop=1;jettySize=auto;html=1;exitX=1;exitY=0.5;exitDx=0;exitDy=0;entryX=0;entryY=0.5;entryDx=0;entryDy=0;" edge="1" parent="t-_gTp0Poy27Sv-D3Z3f-1" source="t-_gTp0Poy27Sv-D3Z3f-26" target="t-_gTp0Poy27Sv-D3Z3f-28">
          <mxGeometry relative="1" as="geometry" />
        </mxCell>
        <mxCell id="t-_gTp0Poy27Sv-D3Z3f-26" value="model:hybrid&#xa;NLP-Fuzzy" style="shape=hexagon;perimeter=hexagonPerimeter2;fillColor=#b0e3e6;strokeColor=#0e8088;" name="model" vertex="1" parent="t-_gTp0Poy27Sv-D3Z3f-1">
          <mxGeometry x="870" y="1000" width="120" height="50" as="geometry" />
        </mxCell>
        <mxCell id="t-_gTp0Poy27Sv-D3Z3f-27" style="edgeStyle=orthogonalEdgeStyle;rounded=0;orthogonalLoop=1;jettySize=auto;html=1;exitX=1;exitY=0.5;exitDx=0;exitDy=0;entryX=0;entryY=0.5;entryDx=0;entryDy=0;" edge="1" parent="t-_gTp0Poy27Sv-D3Z3f-1" source="t-_gTp0Poy27Sv-D3Z3f-28" target="t-_gTp0Poy27Sv-D3Z3f-31">
          <mxGeometry relative="1" as="geometry" />
        </mxCell>
        <mxCell id="t-_gTp0Poy27Sv-D3Z3f-28" value="infer:deduce" style="rounded=1;whiteSpace=wrap;html=1;arcSize=50;fillColor=#bac8d3;strokeColor=#23445d;" name="infer:deduce" vertex="1" parent="t-_gTp0Poy27Sv-D3Z3f-1">
          <mxGeometry x="1060" y="1000" width="100" height="50" as="geometry" />
        </mxCell>
        <mxCell id="t-_gTp0Poy27Sv-D3Z3f-29" style="edgeStyle=orthogonalEdgeStyle;rounded=0;orthogonalLoop=1;jettySize=auto;html=1;entryX=0.5;entryY=0;entryDx=0;entryDy=0;" edge="1" parent="t-_gTp0Poy27Sv-D3Z3f-1" source="t-_gTp0Poy27Sv-D3Z3f-30" target="t-_gTp0Poy27Sv-D3Z3f-28">
          <mxGeometry relative="1" as="geometry" />
        </mxCell>
        <mxCell id="t-_gTp0Poy27Sv-D3Z3f-30" value="data&#xa;Input Query" style="rectangle;fillColor=#fff2cc;strokeColor=#d6b656;" name="data" vertex="1" parent="t-_gTp0Poy27Sv-D3Z3f-1">
          <mxGeometry x="1060" y="870" width="100" height="50" as="geometry" />
        </mxCell>
        <mxCell id="t-_gTp0Poy27Sv-D3Z3f-31" value="symbol&#xa;Recommendation" style="rectangle;fillColor=#dae8fc;strokeColor=#6c8ebf;" name="symbol" vertex="1" parent="t-_gTp0Poy27Sv-D3Z3f-1">
          <mxGeometry x="1240" y="1000" width="100" height="50" as="geometry" />
        </mxCell>
        <mxCell id="t-_gTp0Poy27Sv-D3Z3f-32" value="error" style="text;html=1;align=center;verticalAlign=middle;whiteSpace=wrap;rounded=0;dashed=1;fillColor=#f5f5f5;fontColor=#333333;strokeColor=#666666;strokeWidth=2;" name="text" vertex="1" parent="t-_gTp0Poy27Sv-D3Z3f-1">
          <mxGeometry x="730" y="760" width="40" height="30" as="geometry" />
        </mxCell>
        <mxCell id="hXK9TnrhFIUoQlNanC98-1" value="error" style="text;html=1;align=center;verticalAlign=middle;whiteSpace=wrap;rounded=0;dashed=1;fillColor=#f5f5f5;fontColor=#333333;strokeColor=#666666;strokeWidth=2;" name="text" vertex="1" parent="t-_gTp0Poy27Sv-D3Z3f-1">
          <mxGeometry x="730" y="960" width="40" height="30" as="geometry" />
        </mxCell>
      </root>
    </mxGraphModel>
  </diagram>
</mxfile>
